<svg width="24" height="24" viewBox="0 0 24 24" fill="none" xmlns="http://www.w3.org/2000/svg">
<path d="M6.86609 18.8508C6.78829 19.2942 7.22586 19.6413 7.6123 19.4427L12.0015 17.1868L16.3908 19.4427C16.7772 19.6413 17.2148 19.2942 17.137 18.8508L16.3072 14.1213L19.8296 10.7646C20.1587 10.4509 19.9883 9.87737 19.5474 9.81472L14.6489 9.11885L12.4648 4.7923C12.268 4.40257 11.735 4.40257 11.5383 4.7923L9.35417 9.11885L4.4557 9.81472C4.01471 9.87737 3.84431 10.4509 4.17349 10.7646L7.69582 14.1213L6.86609 18.8508ZM11.7707 16.0826L8.08495 17.977L8.7792 14.0197C8.81193 13.8332 8.75039 13.6421 8.61645 13.5145L5.70961 10.7444L9.76192 10.1687C9.92944 10.1449 10.0757 10.0379 10.1547 9.88141L12.0015 6.22308L13.8483 9.88141C13.9273 10.0379 14.0736 10.1449 14.2411 10.1687L18.2934 10.7444L15.3866 13.5145C15.2527 13.6421 15.1911 13.8332 15.2239 14.0197L15.9181 17.977L12.2324 16.0826C12.0868 16.0078 11.9163 16.0078 11.7707 16.0826Z" fill="#6D6D6D"/>
</svg>
